<svg width="31" height="44" viewBox="0 0 31 44" fill="none" xmlns="http://www.w3.org/2000/svg">
<path d="M28 33.3619C26.1645 29.691 21.612 26.02 13.3162 34.4163C5.02034 42.8126 -0.18798 44.2698 8.44163 20" stroke="#FE553E" stroke-width="6.6"/>
<path d="M9.836 19.52C8.93467 19.52 8.15467 19.208 7.496 18.584C6.872 17.9253 6.56 17.1453 6.56 16.244C6.56 15.3427 6.872 14.58 7.496 13.956C8.15467 13.2973 8.93467 12.968 9.836 12.968C10.7373 12.968 11.5 13.2973 12.124 13.956C12.7827 14.58 13.112 15.3427 13.112 16.244C13.112 17.1453 12.7827 17.9253 12.124 18.584C11.5 19.208 10.7373 19.52 9.836 19.52Z" fill="#FE553E"/>
</svg>
